<svg width="449" height="88" viewBox="0 0 449 88" fill="none" xmlns="http://www.w3.org/2000/svg">
<g clip-path="url(#clip0_1_148)">
<path d="M69.9127 21.1747C69.8639 21.1514 69.8135 21.1317 69.7618 21.1157C67.376 20.186 64.8385 19.7102 62.2791 19.7125H60.1519C60.0114 19.7123 59.8722 19.74 59.7423 19.7938C59.6125 19.8477 59.4945 19.9267 59.3951 20.0264C59.2958 20.1261 59.217 20.2445 59.1633 20.3748C59.1096 20.5051 59.0821 20.6447 59.0823 20.7857V49.3783C59.0927 49.6557 59.2098 49.9183 59.4092 50.1109C59.6085 50.3035 59.8744 50.4111 60.1512 50.4111C60.4279 50.4111 60.6938 50.3035 60.8931 50.1109C61.0925 49.9183 61.2096 49.6557 61.22 49.3783V21.8574H62.276C64.3557 21.8562 66.4206 22.2062 68.3845 22.8927V43.1073C68.3853 43.9968 68.7377 44.8496 69.3644 45.4787C69.9912 46.1078 70.841 46.4618 71.7276 46.463H80.8623V51.0039H73.0657C72.922 50.9985 72.7786 51.0222 72.6442 51.0737C72.5098 51.1251 72.3872 51.2033 72.2836 51.3034C72.18 51.4035 72.0975 51.5235 72.0413 51.6564C71.985 51.7892 71.9559 51.932 71.9559 52.0763C71.9559 52.2207 71.985 52.3635 72.0413 52.4963C72.0975 52.6291 72.18 52.7492 72.2836 52.8493C72.3872 52.9494 72.5098 53.0275 72.6442 53.079C72.7786 53.1304 72.922 53.1542 73.0657 53.1487H80.8623V57.5701H69.7754C69.6317 57.5647 69.4883 57.5884 69.3539 57.6398C69.2195 57.6913 69.0969 57.7694 68.9933 57.8695C68.8897 57.9696 68.8072 58.0897 68.7509 58.2225C68.6947 58.3553 68.6656 58.4982 68.6656 58.6425C68.6656 58.7868 68.6947 58.9296 68.7509 59.0625C68.8072 59.1953 68.8897 59.3153 68.9933 59.4154C69.0969 59.5156 69.2195 59.5937 69.3539 59.6451C69.4883 59.6966 69.6317 59.7203 69.7754 59.7149H81.9319C82.2152 59.7149 82.4869 59.602 82.6872 59.401C82.8875 59.2 83 58.9275 83 58.6432V40.5053C82.9955 36.3396 81.746 32.2709 79.413 28.8249C77.0801 25.379 73.7708 22.7142 69.9127 21.1747ZM71.7231 44.3167C71.403 44.3167 71.096 44.1891 70.8696 43.962C70.6433 43.7349 70.5162 43.4269 70.5162 43.1058V23.7978C73.6198 25.3404 76.2327 27.7216 78.0606 30.6734C79.8885 33.6251 80.8588 37.0302 80.8623 40.5053V44.3167H71.7231Z" fill="#6D91EE"/>
<path d="M10.8968 51.134C8.74159 51.134 6.6348 51.7752 4.84283 52.9766C3.05087 54.1779 1.6542 55.8854 0.829444 57.8831C0.00469091 59.8809 -0.211102 62.0792 0.209353 64.1999C0.629808 66.3207 1.66763 68.2688 3.19157 69.7978C4.71552 71.3268 6.65714 72.3681 8.77091 72.7899C10.8847 73.2118 13.0757 72.9953 15.0668 72.1678C17.0579 71.3403 18.7598 69.939 19.9571 68.1411C21.1545 66.3432 21.7936 64.2294 21.7936 62.067C21.7904 59.1684 20.6413 56.3894 18.5984 54.3398C16.5556 52.2901 13.7858 51.1372 10.8968 51.134ZM10.8968 70.8552C9.16439 70.8552 7.47091 70.3398 6.03049 69.3741C4.59007 68.4085 3.46739 67.0359 2.80444 65.4301C2.14149 63.8243 1.96803 62.0573 2.306 60.3525C2.64397 58.6478 3.47819 57.0819 4.70317 55.8528C5.92815 54.6238 7.48886 53.7868 9.18796 53.4477C10.8871 53.1086 12.6482 53.2827 14.2487 53.9478C15.8492 54.613 17.2172 55.7394 18.1797 57.1846C19.1421 58.6298 19.6558 60.3289 19.6558 62.067C19.6534 64.3971 18.7298 66.631 17.0877 68.2785C15.4456 69.9261 13.2191 70.8528 10.8968 70.8552Z" fill="#6D91EE"/>
<path d="M10.897 59.1685C10.3256 59.1685 9.76704 59.3385 9.29195 59.657C8.81685 59.9755 8.44656 60.4282 8.22789 60.9578C8.00923 61.4875 7.95202 62.0703 8.06349 62.6326C8.17497 63.1948 8.45012 63.7113 8.85415 64.1167C9.25819 64.5221 9.77296 64.7981 10.3334 64.91C10.8938 65.0218 11.4747 64.9644 12.0026 64.745C12.5305 64.5256 12.9817 64.1541 13.2991 63.6774C13.6166 63.2008 13.786 62.6404 13.786 62.0671C13.7852 61.2985 13.4806 60.5617 12.939 60.0183C12.3973 59.4749 11.663 59.1693 10.897 59.1685ZM10.897 62.8209C10.7478 62.8209 10.602 62.7765 10.4779 62.6933C10.3539 62.6101 10.2572 62.4919 10.2001 62.3537C10.143 62.2154 10.1281 62.0632 10.1572 61.9164C10.1863 61.7696 10.2581 61.6347 10.3636 61.5289C10.4691 61.423 10.6035 61.351 10.7498 61.3218C10.8962 61.2926 11.0478 61.3075 11.1857 61.3648C11.3235 61.4221 11.4413 61.5191 11.5242 61.6436C11.6071 61.768 11.6513 61.9144 11.6513 62.064C11.6513 62.2648 11.5718 62.4573 11.4304 62.5992C11.2889 62.7411 11.0971 62.8209 10.897 62.8209Z" fill="#6D91EE"/>
<path d="M57.3275 51.134C55.1723 51.134 53.0655 51.7752 51.2736 52.9766C49.4816 54.1779 48.0849 55.8854 47.2602 57.8831C46.4354 59.8809 46.2196 62.0792 46.6401 64.1999C47.0605 66.3207 48.0984 68.2688 49.6223 69.7978C51.1463 71.3268 53.0879 72.3681 55.2017 72.7899C57.3154 73.2118 59.5064 72.9953 61.4975 72.1678C63.4887 71.3403 65.1905 69.939 66.3879 68.1411C67.5852 66.3432 68.2243 64.2294 68.2243 62.067C68.2211 59.1684 67.072 56.3894 65.0292 54.3398C62.9863 52.2901 60.2165 51.1372 57.3275 51.134ZM57.3275 70.8552C55.5947 70.857 53.9004 70.3431 52.4588 69.3785C51.0172 68.414 49.8931 67.0421 49.2287 65.4364C48.5644 63.8307 48.3896 62.0634 48.7266 60.3581C49.0635 58.6528 49.897 57.086 51.1217 55.8561C52.3463 54.6261 53.907 53.7882 55.6063 53.4484C57.3057 53.1086 59.0673 53.2821 60.6683 53.947C62.2694 54.6118 63.6379 55.7382 64.6007 57.1836C65.5636 58.629 66.0775 60.3285 66.0775 62.067C66.0751 64.3955 65.1528 66.628 63.5126 68.2753C61.8725 69.9227 59.6483 70.8504 57.3275 70.8552Z" fill="#6D91EE"/>
<path d="M57.3277 59.1685C56.7563 59.1685 56.1978 59.3385 55.7227 59.657C55.2476 59.9755 54.8773 60.4282 54.6586 60.9578C54.44 61.4875 54.3828 62.0703 54.4942 62.6326C54.6057 63.1948 54.8809 63.7113 55.2849 64.1167C55.6889 64.5221 56.2037 64.7981 56.7641 64.91C57.3245 65.0218 57.9054 64.9644 58.4333 64.745C58.9612 64.5256 59.4124 64.1541 59.7299 63.6774C60.0473 63.2008 60.2167 62.6404 60.2167 62.0671C60.2159 61.2985 59.9113 60.5617 59.3697 60.0183C58.8281 59.4749 58.0937 59.1693 57.3277 59.1685ZM57.3277 62.8209C57.1785 62.8209 57.0327 62.7765 56.9087 62.6933C56.7846 62.6101 56.6879 62.4919 56.6308 62.3537C56.5738 62.2154 56.5588 62.0632 56.5879 61.9164C56.617 61.7696 56.6889 61.6347 56.7944 61.5289C56.8998 61.423 57.0343 61.351 57.1806 61.3218C57.3269 61.2926 57.4786 61.3075 57.6164 61.3648C57.7542 61.4221 57.872 61.5191 57.9549 61.6436C58.0378 61.768 58.082 61.9144 58.082 62.064C58.082 62.2648 58.0026 62.4573 57.8611 62.5992C57.7196 62.7411 57.5278 62.8209 57.3277 62.8209Z" fill="#6D91EE"/>
<path d="M44.7454 57.5761H23.3516C23.2078 57.5707 23.0645 57.5944 22.9301 57.6458C22.7957 57.6973 22.673 57.7754 22.5694 57.8755C22.4658 57.9756 22.3834 58.0957 22.3271 58.2285C22.2708 58.3613 22.2418 58.5042 22.2418 58.6485C22.2418 58.7928 22.2708 58.9356 22.3271 59.0685C22.3834 59.2013 22.4658 59.3213 22.5694 59.4214C22.673 59.5216 22.7957 59.5997 22.9301 59.6511C23.0645 59.7026 23.2078 59.7263 23.3516 59.7209H44.7454C44.8891 59.7263 45.0325 59.7026 45.1669 59.6511C45.3013 59.5997 45.424 59.5216 45.5276 59.4214C45.6312 59.3213 45.7136 59.2013 45.7699 59.0685C45.8262 58.9356 45.8552 58.7928 45.8552 58.6485C45.8552 58.5042 45.8262 58.3613 45.7699 58.2285C45.7136 58.0957 45.6312 57.9756 45.5276 57.8755C45.424 57.7754 45.3013 57.6973 45.1669 57.6458C45.0325 57.5944 44.8891 57.5707 44.7454 57.5761Z" fill="#6D91EE"/>
<path d="M8.83612 26.1531H9.18612L12.5217 49.5962C12.5318 49.7434 12.572 49.8869 12.6399 50.0178C12.7078 50.1487 12.8018 50.2641 12.9162 50.3569C13.0305 50.4497 13.1627 50.5178 13.3044 50.557C13.4462 50.5962 13.5945 50.6057 13.74 50.5849C13.8856 50.564 14.0253 50.5132 14.1505 50.4358C14.2756 50.3583 14.3835 50.2558 14.4673 50.1346C14.5512 50.0134 14.6093 49.8762 14.6379 49.7314C14.6665 49.5867 14.6651 49.4377 14.6338 49.2935L11.3465 26.1531H53.2727L49.7002 51.0176C49.6689 51.1617 49.6675 51.3108 49.6961 51.4555C49.7247 51.6002 49.7828 51.7374 49.8667 51.8586C49.9505 51.9798 50.0584 52.0823 50.1835 52.1598C50.3087 52.2373 50.4484 52.288 50.594 52.3089C50.7395 52.3297 50.8878 52.3203 51.0296 52.2811C51.1713 52.2418 51.3035 52.1737 51.4178 52.0809C51.5322 51.9882 51.6262 51.8727 51.6941 51.7419C51.762 51.611 51.8022 51.4675 51.8123 51.3203L55.433 26.15H55.7845C56.0679 26.1496 56.3396 26.0364 56.5399 25.8352C56.7401 25.634 56.8526 25.3612 56.8526 25.0769V23.5829C56.8514 22.315 56.349 21.0993 55.4555 20.2026C54.5621 19.3059 53.3506 18.8014 52.0869 18.7998H38.3584C38.0357 17.433 37.2627 16.2154 36.1645 15.3441C35.0664 14.4728 33.7073 13.9988 32.3073 13.9988C30.9073 13.9988 29.5482 14.4728 28.4501 15.3441C27.3519 16.2154 26.5789 17.433 26.2562 18.7998H12.5277C11.264 18.8014 10.0525 19.3059 9.15906 20.2026C8.26562 21.0993 7.76318 22.315 7.76198 23.5829V25.0799C7.76178 25.2208 7.78926 25.3603 7.84285 25.4905C7.89644 25.6207 7.97508 25.739 8.07429 25.8386C8.17349 25.9383 8.2913 26.0174 8.42099 26.0713C8.55068 26.1253 8.68969 26.1531 8.83009 26.1531H8.83612ZM32.3103 16.1449C33.1403 16.147 33.9501 16.402 34.6325 16.8761C35.3149 17.3502 35.8377 18.021 36.1317 18.7998H28.489C28.783 18.021 29.3057 17.3502 29.9881 16.8761C30.6705 16.402 31.4803 16.147 32.3103 16.1449ZM9.90574 23.5829C9.90653 22.8838 10.1837 22.2136 10.6763 21.7193C11.169 21.225 11.837 20.947 12.5338 20.9462H52.0869C52.7838 20.9474 53.4518 21.2258 53.9444 21.7203C54.437 22.2149 54.7141 22.8852 54.7149 23.5844V24.0082H9.90875L9.90574 23.5829Z" fill="#6D91EE"/>
<path d="M30.5848 48.8894C30.8685 48.8894 31.1406 48.7763 31.3411 48.5751C31.5417 48.3738 31.6544 48.1008 31.6544 47.8162C31.6544 47.5316 31.5417 47.2586 31.3411 47.0574C31.1406 46.8561 30.8685 46.743 30.5848 46.743H24.6318L26.2913 43.8459L26.6232 45.0493C26.6855 45.2755 26.82 45.4749 27.0061 45.6171C27.1922 45.7592 27.4197 45.8363 27.6536 45.8364C27.7504 45.8365 27.8469 45.8233 27.9402 45.797C28.0754 45.7594 28.202 45.6954 28.3126 45.6087C28.4231 45.522 28.5156 45.4143 28.5847 45.2917C28.6538 45.1691 28.6981 45.0341 28.7151 44.8943C28.7321 44.7546 28.7216 44.6128 28.6839 44.4771L27.6852 40.858C27.6547 40.7112 27.5935 40.5725 27.5056 40.4512C27.4177 40.3298 27.3051 40.2286 27.1753 40.1542C27.0268 40.0693 26.8603 40.021 26.6895 40.0134H26.6307C26.5375 40.0136 26.4447 40.0258 26.3546 40.0498L22.6872 41.0684C22.4382 41.138 22.2228 41.2957 22.0807 41.5122C21.9386 41.7288 21.8795 41.9897 21.9143 42.2466C21.949 42.5036 22.0753 42.7392 22.2698 42.9099C22.4643 43.0806 22.7139 43.175 22.9723 43.1754C23.0687 43.1756 23.1647 43.1624 23.2574 43.1361L24.416 42.8152L21.8514 47.2804C21.7579 47.4437 21.709 47.6288 21.7094 47.8171C21.7098 48.0054 21.7596 48.1903 21.8538 48.3532C21.9479 48.516 22.0832 48.6512 22.2459 48.7451C22.4086 48.8389 22.593 48.8882 22.7807 48.8879L30.5848 48.8894Z" fill="#6D91EE"/>
<path d="M42.1407 48.8924C42.3281 48.8921 42.5122 48.8425 42.6745 48.7484C42.8368 48.6543 42.9716 48.5191 43.0654 48.3563C43.1592 48.1935 43.2087 48.0089 43.209 47.8208C43.2093 47.6328 43.1603 47.448 43.067 47.2849L39.1763 40.4993C39.1063 40.3772 39.0131 40.2702 38.902 40.1843C38.7908 40.0984 38.6639 40.0353 38.5284 39.9986C38.3929 39.9619 38.2516 39.9523 38.1124 39.9705C37.9733 39.9886 37.8391 40.034 37.7174 40.1042C37.5958 40.1744 37.4891 40.2679 37.4035 40.3794C37.3179 40.4909 37.255 40.6183 37.2184 40.7542C37.1818 40.8901 37.1723 41.0319 37.1904 41.1716C37.2084 41.3112 37.2537 41.4458 37.3237 41.5679L40.2911 46.746H36.9616L37.8366 45.856C37.9357 45.7557 38.0141 45.6369 38.0673 45.5062C38.1206 45.3755 38.1477 45.2356 38.1471 45.0944C38.1464 44.9532 38.1181 44.8135 38.0637 44.6833C38.0092 44.5531 37.9298 44.4349 37.8298 44.3356C37.7299 44.2362 37.6114 44.1575 37.4811 44.1041C37.3509 44.0506 37.2114 44.0234 37.0707 44.0241C36.93 44.0247 36.7908 44.0531 36.661 44.1078C36.5312 44.1624 36.4135 44.2421 36.3144 44.3424L33.6864 47.0139C33.5748 47.1142 33.4856 47.2369 33.4245 47.3741C33.3634 47.5113 33.3318 47.6599 33.3319 47.8101C33.3314 47.9792 33.3718 48.1459 33.4495 48.296C33.4524 48.3043 33.4559 48.3124 33.4601 48.3202L33.4752 48.3429C33.5224 48.4288 33.5819 48.5073 33.6517 48.576L36.3582 51.2657C36.56 51.4665 36.8331 51.5785 37.1173 51.5772C37.4015 51.576 37.6735 51.4615 37.8736 51.2589C38.0736 51.0564 38.1853 50.7824 38.184 50.4973C38.1828 50.2122 38.0686 49.9392 37.8668 49.7385L37.0114 48.8908L42.1407 48.8924Z" fill="#6D91EE"/>
<path d="M31.6071 36.4911C31.536 36.7665 31.5768 37.0589 31.7205 37.3041C31.8642 37.5494 32.0991 37.7273 32.3735 37.7989L35.9942 38.7404C36.1366 38.7881 36.2874 38.8048 36.4368 38.7894C36.5861 38.774 36.7304 38.7268 36.8601 38.6511C36.9982 38.5707 37.1167 38.4606 37.2071 38.3287C37.2103 38.3216 37.2143 38.315 37.2192 38.309C37.2478 38.2661 37.273 38.2211 37.2946 38.1743L37.3082 38.1425C37.3284 38.0959 37.345 38.0478 37.358 37.9987C37.358 37.9987 37.358 37.9987 37.358 37.9896L38.3175 34.2933C38.3573 34.1555 38.3692 34.0111 38.3524 33.8686C38.3356 33.7261 38.2905 33.5884 38.2198 33.4637C38.149 33.339 38.0541 33.2298 37.9406 33.1426C37.827 33.0553 37.6972 32.9918 37.5588 32.9558C37.4204 32.9197 37.2762 32.9119 37.1347 32.9328C36.9932 32.9536 36.8573 33.0027 36.7351 33.0772C36.6128 33.1517 36.5067 33.25 36.423 33.3663C36.3393 33.4826 36.2796 33.6146 36.2476 33.7544L35.9459 34.923L33.3737 30.4623C33.28 30.2995 33.1452 30.1644 32.9828 30.0705C32.8205 29.9767 32.6363 29.9276 32.4489 29.928C32.2613 29.9281 32.0769 29.9776 31.9144 30.0716C31.7518 30.1657 31.6167 30.3009 31.5226 30.4638L27.6183 37.2403C27.544 37.3624 27.4949 37.4982 27.4736 37.6397C27.4524 37.7811 27.4596 37.9254 27.4948 38.064C27.5299 38.2026 27.5923 38.3328 27.6784 38.4469C27.7644 38.5609 27.8722 38.6566 27.9956 38.7282C28.119 38.7999 28.2555 38.846 28.3969 38.864C28.5383 38.882 28.6819 38.8714 28.8192 38.8329C28.9565 38.7944 29.0848 38.7288 29.1964 38.6398C29.3081 38.5509 29.4009 38.4405 29.4694 38.315L32.4489 33.1429L34.1175 36.0355L32.9106 35.7222C32.6361 35.6508 32.3446 35.6918 32.1002 35.8359C31.8558 35.9801 31.6784 36.2158 31.6071 36.4911Z" fill="#6D91EE"/>
</g>
<path d="M130.12 57L119.74 39.48H112V57H107.8V15.06H120.4C125.08 15.06 128.62 16.18 131.02 18.42C133.46 20.66 134.68 23.6 134.68 27.24C134.68 30.28 133.8 32.88 132.04 35.04C130.32 37.16 127.76 38.54 124.36 39.18L135.16 57H130.12ZM112 36.06H120.46C123.74 36.06 126.2 35.26 127.84 33.66C129.52 32.06 130.36 29.92 130.36 27.24C130.36 24.48 129.56 22.36 127.96 20.88C126.36 19.36 123.84 18.6 120.4 18.6H112V36.06ZM157.355 57.48C154.275 57.48 151.495 56.8 149.015 55.44C146.575 54.04 144.635 52.08 143.195 49.56C141.795 47 141.095 44.02 141.095 40.62C141.095 37.22 141.815 34.26 143.255 31.74C144.695 29.18 146.655 27.22 149.135 25.86C151.615 24.46 154.395 23.76 157.475 23.76C160.555 23.76 163.335 24.46 165.815 25.86C168.335 27.22 170.295 29.18 171.695 31.74C173.135 34.26 173.855 37.22 173.855 40.62C173.855 43.98 173.135 46.94 171.695 49.5C170.255 52.06 168.275 54.04 165.755 55.44C163.235 56.8 160.435 57.48 157.355 57.48ZM157.355 53.82C159.515 53.82 161.515 53.34 163.355 52.38C165.195 51.38 166.675 49.9 167.795 47.94C168.955 45.94 169.535 43.5 169.535 40.62C169.535 37.74 168.975 35.32 167.855 33.36C166.735 31.36 165.255 29.88 163.415 28.92C161.575 27.92 159.575 27.42 157.415 27.42C155.255 27.42 153.255 27.92 151.415 28.92C149.575 29.88 148.095 31.36 146.975 33.36C145.895 35.32 145.355 37.74 145.355 40.62C145.355 43.5 145.895 45.94 146.975 47.94C148.095 49.9 149.555 51.38 151.355 52.38C153.195 53.34 155.195 53.82 157.355 53.82ZM209.891 24.24V57H205.691V51.24C204.731 53.28 203.251 54.84 201.251 55.92C199.251 57 197.011 57.54 194.531 57.54C190.611 57.54 187.411 56.34 184.931 53.94C182.451 51.5 181.211 47.98 181.211 43.38V24.24H185.351V42.9C185.351 46.46 186.231 49.18 187.991 51.06C189.791 52.94 192.231 53.88 195.311 53.88C198.471 53.88 200.991 52.88 202.871 50.88C204.751 48.88 205.691 45.94 205.691 42.06V24.24H209.891ZM234.84 23.64C238.76 23.64 241.96 24.86 244.44 27.3C246.92 29.7 248.16 33.2 248.16 37.8V57H244.02V38.28C244.02 34.72 243.12 32 241.32 30.12C239.56 28.24 237.14 27.3 234.06 27.3C230.9 27.3 228.38 28.3 226.5 30.3C224.62 32.3 223.68 35.24 223.68 39.12V57H219.48V24.24H223.68V29.82C224.72 27.82 226.22 26.3 228.18 25.26C230.14 24.18 232.36 23.64 234.84 23.64ZM255.528 40.56C255.528 37.2 256.208 34.26 257.568 31.74C258.928 29.18 260.788 27.22 263.148 25.86C265.548 24.46 268.248 23.76 271.248 23.76C274.128 23.76 276.728 24.46 279.048 25.86C281.368 27.26 283.068 29.08 284.148 31.32V12.6H288.348V57H284.148V49.68C283.148 51.96 281.508 53.84 279.228 55.32C276.948 56.76 274.268 57.48 271.188 57.48C268.188 57.48 265.488 56.78 263.088 55.38C260.728 53.98 258.868 52 257.508 49.44C256.188 46.88 255.528 43.92 255.528 40.56ZM284.148 40.62C284.148 37.98 283.608 35.66 282.528 33.66C281.448 31.66 279.968 30.12 278.088 29.04C276.248 27.96 274.208 27.42 271.968 27.42C269.648 27.42 267.568 27.94 265.728 28.98C263.888 30.02 262.428 31.54 261.348 33.54C260.308 35.5 259.788 37.84 259.788 40.56C259.788 43.24 260.308 45.6 261.348 47.64C262.428 49.64 263.888 51.18 265.728 52.26C267.568 53.3 269.648 53.82 271.968 53.82C274.208 53.82 276.248 53.28 278.088 52.2C279.968 51.12 281.448 49.58 282.528 47.58C283.608 45.58 284.148 43.26 284.148 40.62ZM336.722 57L326.342 39.48H318.602V57H314.402V15.06H327.002C331.682 15.06 335.222 16.18 337.622 18.42C340.062 20.66 341.282 23.6 341.282 27.24C341.282 30.28 340.402 32.88 338.642 35.04C336.922 37.16 334.362 38.54 330.962 39.18L341.762 57H336.722ZM318.602 36.06H327.062C330.342 36.06 332.802 35.26 334.442 33.66C336.122 32.06 336.962 29.92 336.962 27.24C336.962 24.48 336.162 22.36 334.562 20.88C332.962 19.36 330.442 18.6 327.002 18.6H318.602V36.06ZM363.956 57.48C360.876 57.48 358.096 56.8 355.616 55.44C353.176 54.04 351.236 52.08 349.796 49.56C348.396 47 347.696 44.02 347.696 40.62C347.696 37.22 348.416 34.26 349.856 31.74C351.296 29.18 353.256 27.22 355.736 25.86C358.216 24.46 360.996 23.76 364.076 23.76C367.156 23.76 369.936 24.46 372.416 25.86C374.936 27.22 376.896 29.18 378.296 31.74C379.736 34.26 380.456 37.22 380.456 40.62C380.456 43.98 379.736 46.94 378.296 49.5C376.856 52.06 374.876 54.04 372.356 55.44C369.836 56.8 367.036 57.48 363.956 57.48ZM363.956 53.82C366.116 53.82 368.116 53.34 369.956 52.38C371.796 51.38 373.276 49.9 374.396 47.94C375.556 45.94 376.136 43.5 376.136 40.62C376.136 37.74 375.576 35.32 374.456 33.36C373.336 31.36 371.856 29.88 370.016 28.92C368.176 27.92 366.176 27.42 364.016 27.42C361.856 27.42 359.856 27.92 358.016 28.92C356.176 29.88 354.696 31.36 353.576 33.36C352.496 35.32 351.956 37.74 351.956 40.62C351.956 43.5 352.496 45.94 353.576 47.94C354.696 49.9 356.156 51.38 357.956 52.38C359.796 53.34 361.796 53.82 363.956 53.82ZM386.193 40.62C386.193 37.22 386.873 34.26 388.233 31.74C389.593 29.18 391.473 27.22 393.873 25.86C396.273 24.46 399.013 23.76 402.093 23.76C406.133 23.76 409.453 24.76 412.053 26.76C414.693 28.76 416.393 31.48 417.153 34.92H412.653C412.093 32.56 410.873 30.72 408.993 29.4C407.153 28.04 404.853 27.36 402.093 27.36C399.893 27.36 397.913 27.86 396.153 28.86C394.393 29.86 392.993 31.36 391.953 33.36C390.953 35.32 390.453 37.74 390.453 40.62C390.453 43.5 390.953 45.94 391.953 47.94C392.993 49.94 394.393 51.44 396.153 52.44C397.913 53.44 399.893 53.94 402.093 53.94C404.853 53.94 407.153 53.28 408.993 51.96C410.873 50.6 412.093 48.72 412.653 46.32H417.153C416.393 49.68 414.693 52.38 412.053 54.42C409.413 56.46 406.093 57.48 402.093 57.48C399.013 57.48 396.273 56.8 393.873 55.44C391.473 54.04 389.593 52.08 388.233 49.56C386.873 47 386.193 44.02 386.193 40.62ZM442.609 57L429.109 42.3V57H424.909V12.6H429.109V38.88L442.309 24.24H448.189L432.649 40.56L448.309 57H442.609ZM115.327 67.195V70.471H111.379V82H107.263V70.471H103.357V67.195H115.327ZM136.821 72.298C137.283 71.626 137.843 71.094 138.501 70.702C139.159 70.31 139.866 70.114 140.622 70.114V74.503H139.467C138.571 74.503 137.906 74.678 137.472 75.028C137.038 75.378 136.821 75.987 136.821 76.855V82H132.705V70.219H136.821V72.298ZM170.006 70.219V82H165.869V80.32C165.519 80.852 165.036 81.286 164.42 81.622C163.804 81.944 163.097 82.105 162.299 82.105C160.927 82.105 159.842 81.657 159.044 80.761C158.26 79.851 157.868 78.619 157.868 77.065V70.219H161.963V76.54C161.963 77.212 162.138 77.744 162.488 78.136C162.852 78.514 163.328 78.703 163.916 78.703C164.518 78.703 164.994 78.514 165.344 78.136C165.694 77.744 165.869 77.212 165.869 76.54V70.219H170.006ZM193.223 82.147C192.159 82.147 191.207 81.972 190.367 81.622C189.541 81.258 188.883 80.768 188.393 80.152C187.917 79.522 187.651 78.815 187.595 78.031H191.585C191.641 78.409 191.816 78.703 192.11 78.913C192.404 79.123 192.768 79.228 193.202 79.228C193.538 79.228 193.804 79.158 194 79.018C194.196 78.878 194.294 78.696 194.294 78.472C194.294 78.178 194.133 77.961 193.811 77.821C193.489 77.681 192.957 77.527 192.215 77.359C191.375 77.191 190.675 77.002 190.115 76.792C189.555 76.582 189.065 76.239 188.645 75.763C188.239 75.287 188.036 74.643 188.036 73.831C188.036 73.131 188.225 72.501 188.603 71.941C188.981 71.367 189.534 70.912 190.262 70.576C191.004 70.24 191.893 70.072 192.929 70.072C194.469 70.072 195.68 70.45 196.562 71.206C197.444 71.962 197.955 72.956 198.095 74.188H194.378C194.308 73.81 194.14 73.523 193.874 73.327C193.622 73.117 193.279 73.012 192.845 73.012C192.509 73.012 192.25 73.075 192.068 73.201C191.9 73.327 191.816 73.502 191.816 73.726C191.816 74.006 191.977 74.223 192.299 74.377C192.621 74.517 193.139 74.664 193.853 74.818C194.707 75 195.414 75.203 195.974 75.427C196.548 75.651 197.045 76.015 197.465 76.519C197.899 77.009 198.116 77.681 198.116 78.535C198.116 79.221 197.913 79.837 197.507 80.383C197.115 80.929 196.548 81.363 195.806 81.685C195.078 81.993 194.217 82.147 193.223 82.147ZM223.743 70.114C225.087 70.114 226.151 70.569 226.935 71.479C227.733 72.375 228.132 73.593 228.132 75.133V82H224.016V75.679C224.016 75.007 223.841 74.482 223.491 74.104C223.141 73.712 222.672 73.516 222.084 73.516C221.468 73.516 220.985 73.712 220.635 74.104C220.285 74.482 220.11 75.007 220.11 75.679V82H215.994V66.46H220.11V71.899C220.474 71.367 220.964 70.94 221.58 70.618C222.21 70.282 222.931 70.114 223.743 70.114ZM279.371 67.195V82H275.255V76.057H270.236V82H266.12V67.195H270.236V72.76H275.255V67.195H279.371ZM296.91 76.099C296.91 74.881 297.127 73.817 297.561 72.907C298.009 71.997 298.611 71.297 299.367 70.807C300.137 70.317 300.991 70.072 301.929 70.072C302.741 70.072 303.441 70.233 304.029 70.555C304.617 70.877 305.072 71.311 305.394 71.857V70.219H309.51V82H305.394V80.362C305.072 80.908 304.61 81.342 304.008 81.664C303.42 81.986 302.727 82.147 301.929 82.147C300.991 82.147 300.137 81.902 299.367 81.412C298.611 80.922 298.009 80.222 297.561 79.312C297.127 78.388 296.91 77.317 296.91 76.099ZM305.394 76.099C305.394 75.343 305.184 74.748 304.764 74.314C304.358 73.88 303.854 73.663 303.252 73.663C302.636 73.663 302.125 73.88 301.719 74.314C301.313 74.734 301.11 75.329 301.11 76.099C301.11 76.855 301.313 77.457 301.719 77.905C302.125 78.339 302.636 78.556 303.252 78.556C303.854 78.556 304.358 78.339 304.764 77.905C305.184 77.471 305.394 76.869 305.394 76.099ZM339.764 70.219V82H335.627V80.32C335.277 80.852 334.794 81.286 334.178 81.622C333.562 81.944 332.855 82.105 332.057 82.105C330.685 82.105 329.6 81.657 328.802 80.761C328.018 79.851 327.626 78.619 327.626 77.065V70.219H331.721V76.54C331.721 77.212 331.896 77.744 332.246 78.136C332.61 78.514 333.086 78.703 333.674 78.703C334.276 78.703 334.752 78.514 335.102 78.136C335.452 77.744 335.627 77.212 335.627 76.54V70.219H339.764ZM362.078 66.46V82H357.962V66.46H362.078ZM382.356 69.127C381.628 69.127 381.04 68.931 380.592 68.539C380.158 68.133 379.941 67.629 379.941 67.027C379.941 66.411 380.158 65.9 380.592 65.494C381.04 65.088 381.628 64.885 382.356 64.885C383.07 64.885 383.644 65.088 384.078 65.494C384.526 65.9 384.75 66.411 384.75 67.027C384.75 67.629 384.526 68.133 384.078 68.539C383.644 68.931 383.07 69.127 382.356 69.127ZM384.393 70.219V82H380.277V70.219H384.393ZM410.299 70.114C411.657 70.114 412.735 70.569 413.533 71.479C414.331 72.375 414.73 73.593 414.73 75.133V82H410.614V75.679C410.614 75.007 410.439 74.482 410.089 74.104C409.739 73.712 409.27 73.516 408.682 73.516C408.066 73.516 407.583 73.712 407.233 74.104C406.883 74.482 406.708 75.007 406.708 75.679V82H402.592V70.219H406.708V71.899C407.072 71.367 407.562 70.94 408.178 70.618C408.794 70.282 409.501 70.114 410.299 70.114ZM437.19 70.072C437.988 70.072 438.681 70.233 439.269 70.555C439.871 70.877 440.333 71.311 440.655 71.857V70.219H444.771V81.874C444.771 82.98 444.561 83.974 444.141 84.856C443.721 85.752 443.063 86.466 442.167 86.998C441.285 87.53 440.165 87.796 438.807 87.796C436.987 87.796 435.531 87.369 434.439 86.515C433.347 85.661 432.724 84.499 432.57 83.029H436.623C436.707 83.407 436.917 83.701 437.253 83.911C437.589 84.121 438.023 84.226 438.555 84.226C439.955 84.226 440.655 83.442 440.655 81.874V80.362C440.333 80.908 439.871 81.342 439.269 81.664C438.681 81.986 437.988 82.147 437.19 82.147C436.252 82.147 435.398 81.902 434.628 81.412C433.872 80.922 433.27 80.222 432.822 79.312C432.388 78.388 432.171 77.317 432.171 76.099C432.171 74.881 432.388 73.817 432.822 72.907C433.27 71.997 433.872 71.297 434.628 70.807C435.398 70.317 436.252 70.072 437.19 70.072ZM440.655 76.099C440.655 75.343 440.445 74.748 440.025 74.314C439.619 73.88 439.115 73.663 438.513 73.663C437.897 73.663 437.386 73.88 436.98 74.314C436.574 74.734 436.371 75.329 436.371 76.099C436.371 76.855 436.574 77.457 436.98 77.905C437.386 78.339 437.897 78.556 438.513 78.556C439.115 78.556 439.619 78.339 440.025 77.905C440.445 77.471 440.655 76.869 440.655 76.099Z" fill="#6D91EE"/>
<defs>
<clipPath id="clip0_1_148">
<rect width="83" height="59" fill="white" transform="translate(0 14)"/>
</clipPath>
</defs>
</svg>
